<?xml version="1.0" encoding="utf-8"?>
<!-- Generator: Adobe Illustrator 21.0.0, SVG Export Plug-In . SVG Version: 6.00 Build 0)  -->
<svg version="1.1" id="Layer_1" xmlns="http://www.w3.org/2000/svg" xmlns:xlink="http://www.w3.org/1999/xlink" x="0px" y="0px"
	 viewBox="0 0 16 16" style="enable-background:new 0 0 16 16;" xml:space="preserve">
<path id="hl" d="M7.1,10.2l0,0.3l-0.6,0l0-1.1C6.7,9.8,6.9,10,7.1,10.2z"/>
<path id="h" d="M6.8,7.8C6.7,8,6.6,8.2,6.5,8.4C6.1,7.3,4.3,7.6,4.3,8.8h0v1.7H3.8c0-2.3,0-4.5,0-6.8l0.6,0.6l0,3.3
	C5,6.9,6.2,7,6.8,7.8z"/>
<path id="k" d="M3.7,9.3v0.9c-0.6,0.5-1.6,0.5-2.2-0.1v0.4H0.9V3.7l0.6,0.6v3.2C2,7.1,2.6,7,3.2,7.2L3,7.8C2.1,7.4,1.2,8.4,1.6,9.3
	C2,10.2,3.3,10.2,3.7,9.3z"/>
<path id="o" d="M9.3,9.2c0.1,0.2,0.2,0.4,0.3,0.6c-1,1.2-3,0.5-3-1.1c0-1.6,2.1-2.3,3-1C9.5,8,9.4,8.2,9.3,8.4
	C8.9,7.3,7.1,7.6,7.2,8.8C7.2,10,8.9,10.4,9.3,9.2z"/>
<path id="d" d="M10,8.4c-0.5,1.3,1.5,2.1,2.1,0.8c0.1,0.2,0.2,0.4,0.3,0.6c-0.9,1.2-2.9,0.6-3-0.9c-0.1-1.5,1.7-2.4,2.8-1.4l0-3.8
	l0.6,0.6l0,3.1c-0.3,0.2-0.6,0.6-0.7,1C11.7,7.5,10.4,7.5,10,8.4z"/>
<path id="e" d="M15.6,8.8c0-1.5-2-2.3-3-1.1c-1.1,1.3,0.3,3.3,1.9,2.7l-0.2-0.5c-0.6,0.2-1.3-0.1-1.5-0.8h2.8L15.6,8.8L15.6,8.8z
	 M12.8,8.5c0.3-1.1,1.9-1.1,2.2,0C15,8.5,12.8,8.5,12.8,8.5z"/>
</svg>
